<svg width="213" height="56" viewBox="0 0 213 56" fill="none" xmlns="http://www.w3.org/2000/svg">
    <path d="M62.4866 20V6.308H65.8676L68.0726 12.398C68.2126 12.804 68.3456 13.224 68.4716 13.658C68.5976 14.078 68.7306 14.498 68.8706 14.918H68.9546C69.0946 14.498 69.2206 14.078 69.3326 13.658C69.4586 13.224 69.5916 12.804 69.7316 12.398L71.8946 6.308H75.2546V20H72.4406V14.981C72.4406 14.645 72.4546 14.274 72.4826 13.868C72.5106 13.462 72.5456 13.056 72.5876 12.65C72.6296 12.23 72.6716 11.824 72.7136 11.432C72.7556 11.026 72.7976 10.655 72.8396 10.319H72.7556L71.6426 13.574L69.6896 18.803H67.9886L66.0356 13.574L64.9436 10.319H64.8596C64.9016 10.655 64.9436 11.026 64.9856 11.432C65.0276 11.824 65.0696 12.23 65.1116 12.65C65.1536 13.056 65.1886 13.462 65.2166 13.868C65.2446 14.274 65.2586 14.645 65.2586 14.981V20H62.4866ZM78.2307 20V9.584H81.3177V20H78.2307ZM79.7637 8.051C79.2457 8.051 78.8187 7.904 78.4827 7.61C78.1467 7.302 77.9787 6.91 77.9787 6.434C77.9787 5.958 78.1467 5.573 78.4827 5.279C78.8187 4.985 79.2457 4.838 79.7637 4.838C80.2957 4.838 80.7227 4.985 81.0447 5.279C81.3807 5.573 81.5487 5.958 81.5487 6.434C81.5487 6.91 81.3807 7.302 81.0447 7.61C80.7227 7.904 80.2957 8.051 79.7637 8.051ZM88.5704 20.252C87.8424 20.252 87.1634 20.133 86.5334 19.895C85.9174 19.643 85.3784 19.286 84.9164 18.824C84.4544 18.362 84.0904 17.795 83.8244 17.123C83.5584 16.437 83.4254 15.66 83.4254 14.792C83.4254 13.924 83.5724 13.154 83.8664 12.482C84.1604 11.796 84.5524 11.222 85.0424 10.76C85.5464 10.298 86.1274 9.948 86.7854 9.71C87.4434 9.458 88.1294 9.332 88.8434 9.332C89.4874 9.332 90.0544 9.437 90.5444 9.647C91.0484 9.857 91.4964 10.123 91.8884 10.445L90.4394 12.44C89.9494 12.034 89.4804 11.831 89.0324 11.831C88.2764 11.831 87.6814 12.097 87.2474 12.629C86.8134 13.161 86.5964 13.882 86.5964 14.792C86.5964 15.702 86.8134 16.423 87.2474 16.955C87.6954 17.487 88.2554 17.753 88.9274 17.753C89.2634 17.753 89.5854 17.683 89.8934 17.543C90.2154 17.389 90.5164 17.207 90.7964 16.997L92.0144 19.013C91.4964 19.461 90.9364 19.783 90.3344 19.979C89.7324 20.161 89.1444 20.252 88.5704 20.252ZM93.8371 20V9.584H96.3571L96.5671 11.411H96.6511C97.0291 10.697 97.4841 10.172 98.0161 9.836C98.5481 9.5 99.0801 9.332 99.6121 9.332C99.9061 9.332 100.144 9.353 100.326 9.395C100.522 9.423 100.697 9.472 100.851 9.542L100.347 12.209C100.151 12.153 99.9691 12.111 99.8011 12.083C99.6331 12.055 99.4371 12.041 99.2131 12.041C98.8211 12.041 98.4081 12.181 97.9741 12.461C97.5541 12.741 97.2041 13.238 96.9241 13.952V20H93.8371ZM106.472 20.252C105.814 20.252 105.177 20.133 104.561 19.895C103.945 19.643 103.399 19.286 102.923 18.824C102.461 18.362 102.09 17.795 101.81 17.123C101.53 16.437 101.39 15.66 101.39 14.792C101.39 13.924 101.53 13.154 101.81 12.482C102.09 11.796 102.461 11.222 102.923 10.76C103.399 10.298 103.945 9.948 104.561 9.71C105.177 9.458 105.814 9.332 106.472 9.332C107.13 9.332 107.76 9.458 108.362 9.71C108.978 9.948 109.517 10.298 109.979 10.76C110.455 11.222 110.833 11.796 111.113 12.482C111.393 13.154 111.533 13.924 111.533 14.792C111.533 15.66 111.393 16.437 111.113 17.123C110.833 17.795 110.455 18.362 109.979 18.824C109.517 19.286 108.978 19.643 108.362 19.895C107.76 20.133 107.13 20.252 106.472 20.252ZM106.472 17.753C107.102 17.753 107.578 17.487 107.9 16.955C108.222 16.423 108.383 15.702 108.383 14.792C108.383 13.882 108.222 13.161 107.9 12.629C107.578 12.097 107.102 11.831 106.472 11.831C105.828 11.831 105.345 12.097 105.023 12.629C104.715 13.161 104.561 13.882 104.561 14.792C104.561 15.702 104.715 16.423 105.023 16.955C105.345 17.487 105.828 17.753 106.472 17.753Z" fill="#10101C"/>
    <path d="M62.9486 46.4783V28.8743H74.0456V32.2223H66.9176V36.2993H73.0196V39.6473H66.9176V46.4783H62.9486ZM76.7837 46.4783V33.0863H80.7527V46.4783H76.7837ZM78.7547 31.1153C78.0887 31.1153 77.5397 30.9263 77.1077 30.5483C76.6757 30.1523 76.4597 29.6483 76.4597 29.0363C76.4597 28.4243 76.6757 27.9293 77.1077 27.5513C77.5397 27.1733 78.0887 26.9843 78.7547 26.9843C79.4387 26.9843 79.9877 27.1733 80.4017 27.5513C80.8337 27.9293 81.0497 28.4243 81.0497 29.0363C81.0497 29.6483 80.8337 30.1523 80.4017 30.5483C79.9877 30.9263 79.4387 31.1153 78.7547 31.1153ZM84.2457 46.4783V33.0863H87.4857L87.7557 34.7873H87.8637C88.4397 34.2473 89.0697 33.7793 89.7537 33.3833C90.4377 32.9693 91.2387 32.7623 92.1567 32.7623C93.6147 32.7623 94.6677 33.2393 95.3157 34.1933C95.9817 35.1473 96.3147 36.4703 96.3147 38.1623V46.4783H92.3457V38.6753C92.3457 37.7033 92.2107 37.0373 91.9407 36.6773C91.6887 36.3173 91.2747 36.1373 90.6987 36.1373C90.1947 36.1373 89.7627 36.2543 89.4027 36.4883C89.0427 36.7043 88.6467 37.0193 88.2147 37.4333V46.4783H84.2457ZM103.072 46.8023C102.46 46.8023 101.902 46.6943 101.398 46.4783C100.912 46.2803 100.498 46.0013 100.156 45.6413C99.8138 45.2633 99.5438 44.8313 99.3458 44.3453C99.1658 43.8593 99.0758 43.3283 99.0758 42.7523C99.0758 41.3483 99.6698 40.2503 100.858 39.4583C102.046 38.6663 103.963 38.1353 106.609 37.8653C106.573 37.2713 106.393 36.8033 106.069 36.4613C105.763 36.1013 105.241 35.9213 104.503 35.9213C103.927 35.9213 103.351 36.0293 102.775 36.2453C102.217 36.4613 101.614 36.7583 100.966 37.1363L99.5348 34.5173C100.399 33.9953 101.299 33.5723 102.235 33.2483C103.189 32.9243 104.197 32.7623 105.259 32.7623C106.987 32.7623 108.301 33.2573 109.201 34.2473C110.119 35.2193 110.578 36.7403 110.578 38.8103V46.4783H107.338L107.068 45.1013H106.96C106.384 45.6053 105.781 46.0193 105.151 46.3433C104.521 46.6493 103.828 46.8023 103.072 46.8023ZM104.422 43.7243C104.872 43.7243 105.259 43.6253 105.583 43.4273C105.907 43.2293 106.249 42.9503 106.609 42.5903V40.2413C105.205 40.4393 104.233 40.7273 103.693 41.1053C103.153 41.4833 102.883 41.9333 102.883 42.4553C102.883 42.8873 103.018 43.2113 103.288 43.4273C103.576 43.6253 103.954 43.7243 104.422 43.7243ZM113.935 46.4783V33.0863H117.175L117.445 34.7873H117.553C118.129 34.2473 118.759 33.7793 119.443 33.3833C120.127 32.9693 120.928 32.7623 121.846 32.7623C123.304 32.7623 124.357 33.2393 125.005 34.1933C125.671 35.1473 126.004 36.4703 126.004 38.1623V46.4783H122.035V38.6753C122.035 37.7033 121.9 37.0373 121.63 36.6773C121.378 36.3173 120.964 36.1373 120.388 36.1373C119.884 36.1373 119.452 36.2543 119.092 36.4883C118.732 36.7043 118.336 37.0193 117.904 37.4333V46.4783H113.935ZM135.218 46.8023C134.282 46.8023 133.409 46.6493 132.599 46.3433C131.807 46.0193 131.114 45.5603 130.52 44.9663C129.926 44.3723 129.458 43.6433 129.116 42.7793C128.774 41.8973 128.603 40.8983 128.603 39.7823C128.603 38.6663 128.792 37.6763 129.17 36.8123C129.548 35.9303 130.052 35.1923 130.682 34.5983C131.33 34.0043 132.077 33.5543 132.923 33.2483C133.769 32.9243 134.651 32.7623 135.569 32.7623C136.397 32.7623 137.126 32.8973 137.756 33.1673C138.404 33.4373 138.98 33.7793 139.484 34.1933L137.621 36.7583C136.991 36.2363 136.388 35.9753 135.812 35.9753C134.84 35.9753 134.075 36.3173 133.517 37.0013C132.959 37.6853 132.68 38.6123 132.68 39.7823C132.68 40.9523 132.959 41.8793 133.517 42.5633C134.093 43.2473 134.813 43.5893 135.677 43.5893C136.109 43.5893 136.523 43.4993 136.919 43.3193C137.333 43.1213 137.72 42.8873 138.08 42.6173L139.646 45.2093C138.98 45.7853 138.26 46.1993 137.486 46.4513C136.712 46.6853 135.956 46.8023 135.218 46.8023ZM147.219 46.8023C146.265 46.8023 145.374 46.6493 144.546 46.3433C143.718 46.0193 142.998 45.5603 142.386 44.9663C141.774 44.3543 141.297 43.6163 140.955 42.7523C140.613 41.8883 140.442 40.8983 140.442 39.7823C140.442 38.7023 140.622 37.7303 140.982 36.8663C141.342 35.9843 141.81 35.2463 142.386 34.6523C142.98 34.0403 143.655 33.5723 144.411 33.2483C145.167 32.9243 145.95 32.7623 146.76 32.7623C147.714 32.7623 148.542 32.9243 149.244 33.2483C149.964 33.5723 150.558 34.0223 151.026 34.5983C151.512 35.1743 151.872 35.8583 152.106 36.6503C152.34 37.4243 152.457 38.2703 152.457 39.1883C152.457 39.5483 152.439 39.8903 152.403 40.2143C152.367 40.5383 152.331 40.7813 152.295 40.9433H144.276C144.456 41.9153 144.852 42.6353 145.464 43.1033C146.094 43.5533 146.859 43.7783 147.759 43.7783C148.713 43.7783 149.676 43.4813 150.648 42.8873L151.971 45.2903C151.287 45.7583 150.522 46.1273 149.676 46.3973C148.848 46.6673 148.029 46.8023 147.219 46.8023ZM144.249 38.3243H149.082C149.082 37.5683 148.911 36.9563 148.569 36.4883C148.227 36.0203 147.651 35.7863 146.841 35.7863C146.211 35.7863 145.653 35.9933 145.167 36.4073C144.699 36.8213 144.393 37.4603 144.249 38.3243ZM160.929 46.4783V28.8743H166.977C167.949 28.8743 168.858 28.9733 169.704 29.1713C170.55 29.3513 171.288 29.6663 171.918 30.1163C172.548 30.5483 173.043 31.1333 173.403 31.8713C173.781 32.5913 173.97 33.4823 173.97 34.5443C173.97 35.5703 173.781 36.4613 173.403 37.2173C173.043 37.9733 172.548 38.5943 171.918 39.0803C171.288 39.5663 170.559 39.9263 169.731 40.1603C168.903 40.3943 168.021 40.5113 167.085 40.5113H164.898V46.4783H160.929ZM164.898 37.3523H166.842C169.002 37.3523 170.082 36.4163 170.082 34.5443C170.082 33.6263 169.794 32.9783 169.218 32.6003C168.642 32.2223 167.814 32.0333 166.734 32.0333H164.898V37.3523ZM176.689 46.4783V33.0863H179.929L180.199 35.4353H180.307C180.793 34.5173 181.378 33.8423 182.062 33.4103C182.746 32.9783 183.43 32.7623 184.114 32.7623C184.492 32.7623 184.798 32.7893 185.032 32.8433C185.284 32.8793 185.509 32.9423 185.707 33.0323L185.059 36.4613C184.807 36.3893 184.573 36.3353 184.357 36.2993C184.141 36.2633 183.889 36.2453 183.601 36.2453C183.097 36.2453 182.566 36.4253 182.008 36.7853C181.468 37.1453 181.018 37.7843 180.658 38.7023V46.4783H176.689ZM192.934 46.8023C192.088 46.8023 191.269 46.6493 190.477 46.3433C189.685 46.0193 188.983 45.5603 188.371 44.9663C187.777 44.3723 187.3 43.6433 186.94 42.7793C186.58 41.8973 186.4 40.8983 186.4 39.7823C186.4 38.6663 186.58 37.6763 186.94 36.8123C187.3 35.9303 187.777 35.1923 188.371 34.5983C188.983 34.0043 189.685 33.5543 190.477 33.2483C191.269 32.9243 192.088 32.7623 192.934 32.7623C193.78 32.7623 194.59 32.9243 195.364 33.2483C196.156 33.5543 196.849 34.0043 197.443 34.5983C198.055 35.1923 198.541 35.9303 198.901 36.8123C199.261 37.6763 199.441 38.6663 199.441 39.7823C199.441 40.8983 199.261 41.8973 198.901 42.7793C198.541 43.6433 198.055 44.3723 197.443 44.9663C196.849 45.5603 196.156 46.0193 195.364 46.3433C194.59 46.6493 193.78 46.8023 192.934 46.8023ZM192.934 43.5893C193.744 43.5893 194.356 43.2473 194.77 42.5633C195.184 41.8793 195.391 40.9523 195.391 39.7823C195.391 38.6123 195.184 37.6853 194.77 37.0013C194.356 36.3173 193.744 35.9753 192.934 35.9753C192.106 35.9753 191.485 36.3173 191.071 37.0013C190.675 37.6853 190.477 38.6123 190.477 39.7823C190.477 40.9523 190.675 41.8793 191.071 42.5633C191.485 43.2473 192.106 43.5893 192.934 43.5893Z" fill="#10101C"/>
    <g clip-path="url(#clip0)">
        <path d="M12.774 12.7769V15.8318C13.0207 15.6865 13.2326 15.4893 13.3953 15.2537C13.5579 15.0182 13.6672 14.75 13.7156 14.4679C13.7774 14.0961 13.8031 13.2106 12.774 12.7769Z" fill="#10101C"/>
        <path d="M10.3669 8.73669C10.2908 9.13995 10.3868 9.51468 10.6113 9.68778C10.6912 9.7496 10.7787 9.81142 10.8719 9.87134V7.88451C10.6066 8.09868 10.4274 8.40119 10.3669 8.73669V8.73669Z" fill="#10101C"/>
        <path d="M11.8885 0C9.5372 0 7.23866 0.697253 5.28359 2.00359C3.32853 3.30992 1.80474 5.16667 0.904917 7.33902C0.00509778 9.51138 -0.230336 11.9018 0.228388 14.2079C0.687111 16.5141 1.81939 18.6324 3.48204 20.2951C5.14469 21.9577 7.26303 23.09 9.56919 23.5487C11.8753 24.0075 14.2657 23.772 16.4381 22.8722C18.6105 21.9724 20.4672 20.4486 21.7735 18.4935C23.0799 16.5385 23.7771 14.2399 23.7771 11.8886C23.7736 8.73662 22.5199 5.71476 20.2911 3.48598C18.0624 1.2572 15.0405 0.00352429 11.8885 0V0ZM15.5911 14.7837C15.3676 16.1152 14.3547 17.4639 12.774 17.8652V18.5462C12.774 18.7984 12.6738 19.0404 12.4954 19.2187C12.3171 19.3971 12.0752 19.4973 11.8229 19.4973C11.5707 19.4973 11.3288 19.3971 11.1504 19.2187C10.972 19.0404 10.8718 18.7984 10.8718 18.5462V17.9565C10.1043 17.8899 9.46707 17.6826 8.56544 17.092C8.4539 17.027 8.35674 16.94 8.2799 16.8363C8.20306 16.7326 8.14813 16.6143 8.11847 16.4887C8.08881 16.3631 8.08503 16.2327 8.10736 16.1056C8.1297 15.9784 8.17768 15.8572 8.24838 15.7492C8.31909 15.6412 8.41104 15.5487 8.51863 15.4774C8.62622 15.4061 8.74721 15.3574 8.87422 15.3343C9.00122 15.3113 9.1316 15.3143 9.25739 15.3433C9.38319 15.3722 9.50177 15.4265 9.60593 15.5027C10.1195 15.8384 10.4419 15.984 10.8718 16.0448V12.0255C10.3622 11.8042 9.88072 11.5229 9.43759 11.1876C8.64818 10.5685 8.28772 9.4947 8.49696 8.38383C8.72522 7.175 9.56693 6.2125 10.694 5.87296C10.7539 5.85489 10.8129 5.83872 10.8718 5.82255V5.23098C10.8718 4.97873 10.972 4.73682 11.1504 4.55846C11.3288 4.38009 11.5707 4.27989 11.8229 4.27989C12.0752 4.27989 12.3171 4.38009 12.4954 4.55846C12.6738 4.73682 12.774 4.97873 12.774 5.23098V5.71889C13.6975 5.87867 14.35 6.33329 14.6667 6.69565C14.8229 6.88622 14.8991 7.13001 14.8792 7.37564C14.8593 7.62128 14.7447 7.84959 14.5598 8.01247C14.3748 8.17535 14.1339 8.26008 13.8877 8.2488C13.6415 8.23753 13.4093 8.13114 13.24 7.95204C13.1063 7.82934 12.9486 7.73574 12.7769 7.67717V10.7473C12.9461 10.8101 13.1145 10.8709 13.28 10.9299C14.9491 11.5234 15.8831 13.0708 15.5911 14.7837Z" fill="#10101C"/>
        <path d="M47.5077 21.1341L42.5469 20.2914C41.921 19.3211 41.1836 18.4273 40.3498 17.6284C40.8273 15.2224 42.1414 13.0633 44.0591 11.5338L44.3587 11.2942C44.5911 11.1097 44.7603 10.8574 44.8426 10.5723C44.9249 10.2872 44.9162 9.9836 44.8179 9.70365C44.7195 9.42371 44.5363 9.18141 44.2937 9.01048C44.0512 8.83955 43.7614 8.7485 43.4647 8.75001H39.6603C38.0152 8.75609 36.4027 9.20943 34.9954 10.0615C33.5881 10.9136 32.4391 12.1323 31.6712 13.5872C31.1657 13.5332 30.6578 13.5059 30.1494 13.5054H26.541C25.7335 20.8764 19.4706 26.6304 11.8886 26.6304C9.91635 26.6315 7.96409 26.2356 6.14809 25.4664C4.33208 24.6971 2.6895 23.5702 1.31819 22.1527C-0.0526053 25.1711 -0.365099 28.5637 0.43125 31.7817C1.2276 34.9997 3.08622 37.855 5.7065 39.8857V47.269C5.7065 47.6474 5.85681 48.0103 6.12435 48.2778C6.3919 48.5453 6.75477 48.6956 7.13313 48.6956H12.8397C13.1391 48.6956 13.431 48.6014 13.6739 48.4262C13.9168 48.2511 14.0984 48.0039 14.1931 47.7198L15.77 42.9891H29.1213L30.6982 47.7198C30.7928 48.0039 30.9745 48.2511 31.2174 48.4262C31.4603 48.6014 31.7522 48.6956 32.0516 48.6956H37.7581C38.1365 48.6956 38.4994 48.5453 38.7669 48.2778C39.0345 48.0103 39.1848 47.6474 39.1848 47.269V39.8867C41.1441 38.3668 42.6865 36.3755 43.6682 34.0984L47.8045 32.4226C48.0677 32.3159 48.2932 32.1332 48.452 31.8977C48.6107 31.6621 48.6956 31.3846 48.6956 31.1005V22.5408C48.6957 22.2038 48.5764 21.8776 48.359 21.6202C48.1415 21.3627 47.84 21.1905 47.5077 21.1341V21.1341ZM36.3315 24.4429C36.0493 24.4429 35.7735 24.3593 35.5389 24.2025C35.3043 24.0458 35.1214 23.8229 35.0135 23.5623C34.9055 23.3016 34.8772 23.0147 34.9323 22.738C34.9873 22.4612 35.1232 22.207 35.3227 22.0075C35.5222 21.808 35.7764 21.6721 36.0532 21.6171C36.3299 21.562 36.6168 21.5903 36.8775 21.6983C37.1381 21.8063 37.3609 21.9891 37.5177 22.2237C37.6745 22.4583 37.7581 22.7342 37.7581 23.0163C37.7581 23.3947 37.6078 23.7575 37.3403 24.0251C37.0727 24.2926 36.7099 24.4429 36.3315 24.4429Z" fill="#10101C"/>
    </g>
    <defs>
        <clipPath id="clip0">
            <rect width="48.6957" height="48.6957" fill="white"/>
        </clipPath>
    </defs>
</svg>
