<svg id="Layer_1" data-name="Layer 1" xmlns="http://www.w3.org/2000/svg" viewBox="0 0 378.51 241.72"><defs><style>.cls-1{fill:#28a3d4;}.cls-2{fill:#fff;}</style></defs><text x="-7.99" y="36.7"/><rect class="cls-1" x="60.85" y="88.55" width="86.91" height="106.7"/><path class="cls-2" d="M79.1,91.2h9.8v5.45a17.8,17.8,0,0,1,13.46-6.44c4.16,0,7.82,1.88,9.31,7.23,4.06-5,9-7.23,14.25-7.23,5.55,0,10.1,3.76,10.1,13.27v44.94h-9.7V104.17c0-5.54-2-7-4.95-7s-6.24,1.78-8.91,4.65v46.63h-9.7V104.17c0-5.54-2-7-5-7s-6.14,1.78-8.91,4.65v46.63H79.1Z" transform="translate(-7.99 36.7)"/><path class="cls-2" d="M134.2,84l7.21-11.24c1.58-2.52,3.05-4.23,3.05-7.42,0-2.59-.74-4.2-2.84-4.2-2.69,0-3.36,2.52-3.36,5.22v.94h-3.74v-1c0-5.07,1.89-8.26,6.93-8.26,4.55,0,6.79,2.73,6.79,7.32,0,3.64-1.47,5.67-3.12,8.19l-6.51,9.94h9v3.15H134.2Z" transform="translate(-7.99 36.7)"/><path d="M62,188.17H56.88a54.88,54.88,0,0,1-13.42-1.44,17.78,17.78,0,0,1-9.81-7,28.12,28.12,0,0,1-5.24-13.14,171.29,171.29,0,0,1-1.07-22.15,164.36,164.36,0,0,0-1-21.59A22.74,22.74,0,0,0,21.12,111Q17,106.2,8,106V90.77q9-.18,13.13-5A22.74,22.74,0,0,0,26.31,74a164.53,164.53,0,0,0,1-21.6A171.29,171.29,0,0,1,28.41,30.2a28.08,28.08,0,0,1,5.24-13.13,17.68,17.68,0,0,1,9.81-7A54.36,54.36,0,0,1,56.88,8.61H62V23.19h-2.9q-9.72,0-11.92,5.14T45,56.09q0,20.3-5.32,29.64A27.15,27.15,0,0,1,23.5,98.44a26.77,26.77,0,0,1,16.18,12.62Q45,120.41,45,140.69q0,22.62,2.2,27.76t11.92,5.14H62Z" transform="translate(-7.99 36.7)"/><path d="M332.47,8.54h5.14A54.33,54.33,0,0,1,351,10a17.78,17.78,0,0,1,9.82,7,28.17,28.17,0,0,1,5.23,13.13,169.19,169.19,0,0,1,1.08,22.16,164.76,164.76,0,0,0,1,21.59,22.71,22.71,0,0,0,5.19,11.82q4.15,4.81,13.14,5v15.24q-9,.19-13.14,5a22.74,22.74,0,0,0-5.19,11.83,164.76,164.76,0,0,0-1,21.59,169,169,0,0,1-1.08,22.15,28.21,28.21,0,0,1-5.23,13.14,17.83,17.83,0,0,1-9.82,7,54.81,54.81,0,0,1-13.41,1.45h-5.14V173.52h2.9q9.72,0,11.91-5.14t2.2-27.76q0-20.28,5.33-29.63A26.72,26.72,0,0,1,371,98.37a27.07,27.07,0,0,1-16.17-12.71q-5.32-9.34-5.33-29.63,0-22.64-2.2-27.77t-11.91-5.14h-2.9Z" transform="translate(-7.99 36.7)"/><path d="M169.39,52.7h6.43l8.29,38.1,8.35-38.1h6.38l.87,47h-5.27l-.53-34.09L186,99.67h-3.71l-7.89-34.09-.52,34.09h-5.33Z" transform="translate(-7.99 36.7)"/><path d="M205.74,86.74V79.09c0-8.88,2.2-13.4,9.91-13.4,8.41,0,9.51,5.45,9.51,14.61V83H211.94v6.73c0,4,1.1,5.79,3.77,5.79s3.36-2.14,3.36-5.51V88h6v1.28c0,6.73-2.6,10.84-9.45,10.84C207.77,100.13,205.74,95.5,205.74,86.74Zm13.33-7.07v-3c0-4.12-.4-6.38-3.47-6.38s-3.66,1.8-3.66,7.6v1.8Z" transform="translate(-7.99 36.7)"/><path d="M232.47,92.13V70.27h-3.54V66.16h3.54v-9.8h6.2v9.8h5.39v4.11h-5.39V91.73c0,2.61.64,3.65,3.07,3.65a17.9,17.9,0,0,0,2.27-.17v4.58a27.09,27.09,0,0,1-4.3.34C234.44,100.13,232.47,97,232.47,92.13Z" transform="translate(-7.99 36.7)"/><path d="M248,92.36c0-8.35,6-10.78,13.22-13.62V76.36c0-4.06-.47-6-3.37-6-2.55,0-3.53,1.86-3.53,4.76v1.68l-6.15-.24c.12-7.42,3.25-10.84,10.09-10.84,6.61,0,9.16,3.71,9.16,10.61V91.61a60.12,60.12,0,0,0,.58,8.06h-5.68c-.23-1.22-.64-3.36-.81-4.93-.81,2.61-3,5.39-6.79,5.39S248,96.31,248,92.36ZM261.17,92V82.51c-3.83,2.2-7,4.06-7,7.94,0,2.73,1,4.35,3,4.35S260.65,92.89,261.17,92Z" transform="translate(-7.99 36.7)"/><path d="M271.66,90.74l5.16-1.57c.58,4.3,2,6.38,4.81,6.38A3.19,3.19,0,0,0,285.05,92c0-1.92-.81-3.37-2.72-5l-5.74-4.93c-2.32-2-4.12-4.23-4.12-8.18,0-5.27,3.42-8.23,8.64-8.23s8.12,3.94,8.53,8.82l-4.18,1.56c-.46-3.48-1.45-5.8-4.12-5.8a3.26,3.26,0,0,0-3.3,3.42,4.41,4.41,0,0,0,1.68,3.37l5.91,5.45c2.38,2.2,4.76,4.75,4.76,9,0,5.74-3.77,8.58-9.28,8.58S272.12,96.36,271.66,90.74Z" transform="translate(-7.99 36.7)"/><path d="M295.43,54.67h6.21v6.5h-6.21Zm0,11.49h6.21V99.67h-6.21Z" transform="translate(-7.99 36.7)"/><path d="M306.62,90.74l5.16-1.57c.58,4.3,2,6.38,4.81,6.38A3.2,3.2,0,0,0,320,92c0-1.92-.82-3.37-2.73-5l-5.74-4.93c-2.32-2-4.12-4.23-4.12-8.18,0-5.27,3.42-8.23,8.64-8.23s8.12,3.94,8.53,8.82l-4.18,1.56c-.46-3.48-1.45-5.8-4.12-5.8a3.26,3.26,0,0,0-3.3,3.42,4.41,4.41,0,0,0,1.68,3.37l5.92,5.45c2.37,2.2,4.75,4.75,4.75,9,0,5.74-3.77,8.58-9.28,8.58S307.08,96.36,306.62,90.74Z" transform="translate(-7.99 36.7)"/><path d="M169.39,110.62h6.43l8.29,38.09,8.35-38.09h6.38l.87,47h-5.27l-.53-34.1L186,157.59h-3.71l-7.89-34.1-.52,34.1h-5.33Z" transform="translate(-7.99 36.7)"/><path d="M205.74,144.65V137c0-8.87,2.2-13.39,9.91-13.39,8.41,0,9.51,5.45,9.51,14.61v2.72H211.94v6.73c0,4.06,1.1,5.8,3.77,5.8s3.36-2.15,3.36-5.51v-2h6v1.28c0,6.72-2.6,10.84-9.45,10.84C207.77,158.05,205.74,153.41,205.74,144.65Zm13.33-7.07v-3c0-4.12-.4-6.38-3.47-6.38s-3.66,1.79-3.66,7.59v1.8Z" transform="translate(-7.99 36.7)"/><path d="M230.15,144.42v-6.49c0-7.66,1.39-14.32,8.23-14.32a7.92,7.92,0,0,1,5.57,2.61v-15.6h6.2v47H244v-2.15a7.2,7.2,0,0,1-5.4,2.61C232.87,158.05,230.15,154.34,230.15,144.42ZM244,151.9v-22a7.06,7.06,0,0,0-3.95-1.45c-2.89,0-3.65,3.19-3.65,7v9.45c0,4.7.47,8.24,3.77,8.24A7.17,7.17,0,0,0,244,151.9Z" transform="translate(-7.99 36.7)"/><path d="M256.82,112.59H263v6.49h-6.2Zm0,11.48H263v33.52h-6.2Z" transform="translate(-7.99 36.7)"/><path d="M269,150.28c0-8.35,6-10.79,13.22-13.63v-2.37c0-4.06-.46-6-3.36-6-2.55,0-3.54,1.85-3.54,4.75v1.68l-6.14-.23c.11-7.42,3.24-10.84,10.08-10.84,6.62,0,9.17,3.71,9.17,10.61v15.31a60.12,60.12,0,0,0,.58,8.06h-5.69c-.23-1.22-.63-3.37-.81-4.93-.81,2.61-3,5.39-6.78,5.39S269,154.22,269,150.28Zm13.22-.35v-9.51c-3.83,2.21-7,4.06-7,8,0,2.72,1,4.34,2.95,4.34S281.69,150.8,282.21,149.93Z" transform="translate(-7.99 36.7)"/></svg>